<svg width="18" height="19" viewBox="0 0 18 19" fill="none" xmlns="http://www.w3.org/2000/svg">
<path fill-rule="evenodd" clip-rule="evenodd" d="M0 18.3077C0 13.411 3.17867 10.7144 8.95039 10.7144C14.7221 10.7144 17.9008 13.4113 17.9008 18.3077C17.9008 18.6901 17.5869 19.0001 17.1997 19.0001H0.701069C0.313842 19.0001 0 18.6901 0 18.3077ZM8.95039 12.0992C4.23076 12.0992 1.70341 13.9541 1.42765 17.6153H16.4734C16.1974 13.9541 13.67 12.0992 8.95039 12.0992Z" fill="#FFF"/>
<path fill-rule="evenodd" clip-rule="evenodd" d="M4.33105 4.70633C4.33105 2.02336 6.31698 0 8.9506 0C11.5842 0 13.5702 2.02336 13.5702 4.70656C13.5702 7.46789 11.4978 9.71429 8.9506 9.71429C6.40337 9.71429 4.33105 7.46789 4.33105 4.70633ZM5.72389 4.70656C5.72389 6.70092 7.17128 8.32342 8.95062 8.32342C10.73 8.32342 12.1773 6.70092 12.1773 4.70656C12.1773 2.81627 10.7903 1.39109 8.95062 1.39109C7.08098 1.39109 5.72389 2.78545 5.72389 4.70656Z" fill="#FFF"/>
</svg>
