<svg width="18" height="18" viewBox="0 0 18 18" fill="none" xmlns="http://www.w3.org/2000/svg">
<path fill-rule="evenodd" clip-rule="evenodd" d="M0 7.88889C0 3.53907 3.53907 0 7.88889 0C12.2389 0 15.7778 3.53907 15.7778 7.88889C15.7778 12.2389 12.2389 15.7778 7.88889 15.7778C3.53907 15.7778 0 12.2389 0 7.88889ZM1.45642 7.88892C1.45642 11.4358 4.34205 14.3214 7.8889 14.3214C11.4357 14.3214 14.3214 11.4357 14.3214 7.88889C14.3214 4.34205 11.4357 1.45641 7.8889 1.45641C4.34205 1.45641 1.45642 4.34208 1.45642 7.88892Z" fill="#FFF"/>
<path d="M17.781 16.7246L13.4975 12.4411C13.2056 12.1492 12.733 12.1492 12.4411 12.4411C12.1492 12.7327 12.1492 13.2059 12.4411 13.4975L16.7246 17.781C16.8705 17.927 17.0616 17.9999 17.2528 17.9999C17.4438 17.9999 17.6351 17.927 17.781 17.781C18.0729 17.4894 18.0729 17.0162 17.781 16.7246Z" fill="#FFF"/>
</svg>
