<svg width="16" height="20" viewBox="0 0 16 20" fill="none" xmlns="http://www.w3.org/2000/svg">
<path fill-rule="evenodd" clip-rule="evenodd" d="M0.726493 5.91772H15.0138C15.4151 5.91772 15.7403 6.22277 15.7403 6.59911V17.9559C15.7403 19.0832 14.7627 20.0001 13.5609 20.0001H2.17944C0.977842 20.0001 0 19.0832 0 17.9559V6.59915C0 6.22277 0.325226 5.91772 0.726493 5.91772ZM2.17943 18.6373H13.5608C13.9614 18.6373 14.2873 18.3315 14.2873 17.9559V7.28053H1.45294V17.9559C1.45294 18.3316 1.77892 18.6373 2.17943 18.6373Z" fill="#FFF"/>
<path d="M7.95022 0C5.5492 0 3.5957 1.84091 3.5957 4.10355V9.80295C3.5957 10.1807 3.92061 10.4869 4.32148 10.4869C4.72235 10.4869 5.04725 10.1807 5.04725 9.80295V4.10355C5.04725 2.59503 6.34948 1.36785 7.95026 1.36785C9.55104 1.36785 10.8533 2.59503 10.8533 4.10355V9.80295C10.8533 10.1807 11.1782 10.4869 11.579 10.4869C11.9799 10.4869 12.3048 10.1807 12.3048 9.80295V4.10355C12.3047 1.84091 10.3513 0 7.95022 0Z" fill="#FFF"/>
</svg>
